<svg version="1.1" id="Layer_1" xmlns="http://www.w3.org/2000/svg" x="0" y="0" viewBox="0 0 200 116" style="enable-background:new 0 0 200 116" xml:space="preserve"><style>.st1{fill:#b1b1b1}.st2{fill:#fff}.st3{fill:#006548}.st5{fill:#009845}</style><path d="M173.189 115.672c-1.617 0-2.932-1.316-2.932-2.933s1.315-2.933 2.932-2.933 2.933 1.316 2.933 2.933-1.315 2.933-2.933 2.933zm0-5.497c-1.414 0-2.564 1.15-2.564 2.564s1.15 2.564 2.564 2.564c1.414 0 2.564-1.15 2.564-2.564s-1.15-2.564-2.564-2.564zm-.781 4.419a.184.184 0 0 1-.184-.184v-3.07c0-.102.082-.184.184-.184h1.23c.38 0 .803.376.803.915 0 .381-.233.726-.541.853l.647 1.373a.184.184 0 0 1-.333.157l-.695-1.473h-.927v1.428a.184.184 0 0 1-.184.185zm.184-1.982h1.006a.202.202 0 0 1 .043-.005c.199 0 .431-.235.431-.537 0-.339-.253-.547-.434-.547h-1.046v1.089z" style="fill:#231f20"/><path class="st1" d="m185.156 61.896-18.933.004.002.015-2.742-.001.032-.116c3.684-15.123-5.71-23.591-11.12-27.341-.862-2.174-1.594-3.335-1.594-3.335l3.538 1.112c-7.983-15.49-21.526-19.563-21.526-19.563-.048-6.652-2.38-12.261-2.38-12.261-9.125-.903-15.871 5.958-15.871 5.958-12.784-.617-19.271.465-19.271.465-7.413-5.276-15.694-5.567-15.694-5.567-1.711 3.28-1.951 6.276-1.951 6.276l-1.715.401c-14.372-4.682-27.679 4.015-29.217 13.851l1.768-.876C47.784 22.756 47.236 26 47.236 26c-5.893 4.878-6.699 9.62-6.699 9.62-4.323 2.711-9.202 14.877-14.498 12.368-.444 5.67 5.9 6.832 5.9 6.832-.761 4.157.849 6.977.849 6.977l.079.116H5.377l1.362 12.524L0 90.742h16.996c.698 0 1.374-.04 2.028-.119l-.04.098 11.562.006-3.847 9.42h12.777l-5.984 14.497h119.466c.828.245 2.606.703 4.319.703 2.252 0 6.362-1.407 8.451-5.119 1.851-.784 5.825-3.136 6.468-9.03 1.107-1.243 3.149-4.215 2.818-8.954.226-.375.494-.881.737-1.498h.312l.001.003 12.022-.002L200 61.896h-14.844z"/><path d="M196.968 63.924h-12.166l-.779 1.885-.46-1.885-15.075.003.013.118a7.511 7.511 0 0 0-1.25-.102l-6.606-.003c6.01-17.854-10.111-28.248-10.111-28.248-2.093-5.006-5.213-9.081-5.213-9.081l3.835 1.571C142.568 17.282 130.474 14 130.474 14c.443-7.034-1.819-11.814-1.819-11.814-7.286.127-13.371 6.529-13.371 6.529-10.646-1.648-20.466.533-20.466.533C86.52 3.228 80.642 3.62 80.642 3.62c-.63 2.209-1.22 5.742-1.22 5.742l-3.724.834c-12.554-4.938-24.15 3.681-25.27 8.088 1.284-1.046 3.063-1.232 3.063-1.232-3.896 4.61-4.235 10.096-4.235 10.096-4.847 3.422-6.918 9.879-6.918 9.879-6.558 3.992-7.628 12.521-13.385 13.632 1.964 2.725 5.963 2.184 5.963 2.184-2.395 7.356 2.008 10.616 2.717 11.084h-1.076l.001.006-12.902.004.002.004H7.637l1.061 9.754h.542L3.032 88.714h13.964c2.109 0 3.972-.418 5.502-1.202l-.489 1.185 9.358.015.007-.018h120.872c.431 1.57 1.349 3.475 3.305 4.689 0 0-3.093-.461-4.738-2.698 0 0-.655 6.361 3.597 9.46h-.063c-.48-.104-2.942-.747-5.245-3.405 0 0-.565 1.462-.293 3.405H41.681l-5.157 12.47h116.737c.386.123 2.289.703 4.015.703 1.934 0 5.512-1.36 7.002-4.719 0 0 5.577-1.456 5.958-8.3 0 0 3.389-2.789 2.691-8.585 0 0 .932-1.149 1.321-2.994l1.364-.002 1.283-3.11.759 3.112 9.072-.002 1.661-4.029 8.581-20.765zm-155.016.002-.018-.022a11.481 11.481 0 0 1-.217-.277l-.031-.041a11.612 11.612 0 0 1-.443-.627l-.016-.024a11.16 11.16 0 0 1-.93-1.73l-.017-.041a9.37 9.37 0 0 1-.12-.3l-.027-.073a9.59 9.59 0 0 1-.095-.269l-.029-.089a8.123 8.123 0 0 1-.077-.253l-.028-.098a7.939 7.939 0 0 1-.062-.244l-.024-.1a6.912 6.912 0 0 1-.049-.242l-.018-.097a7.433 7.433 0 0 1-.037-.248l-.012-.086a5.163 5.163 0 0 1-.025-.274l-.005-.054a5.089 5.089 0 0 1-.011-.325c0-1.523.771-3.179 2.641-3.179.114 0 .226.01.338.027 1.793.269 3.173 2.592 3.258 3.795a3.843 3.843 0 0 1-.006.401c-.097 1.399-.875 2.204-.875 4.085 0 .132.005.259.011.383h-.001c.101 1.913.93 2.984.93 2.984-1.46-.474-2.882-1.598-4.005-2.982zm12.498-7.467-.044.079c-.033.059-.064.12-.095.181l-.043.09c-.03.064-.059.129-.086.195l-.032.077a6.245 6.245 0 0 0-.104.281l-.01.032a7.087 7.087 0 0 0-.159.563l-.023.099a5.901 5.901 0 0 0-.047.231l-.015.076a8.007 8.007 0 0 0-.051.31l-.008.062c-.012.084-.022.168-.032.253l-.011.106-.02.216-.009.111-.014.233a15.734 15.734 0 0 0-.015.394l-.001.112-.001.2.001.139.003.169.004.148.006.156a17.34 17.34 0 0 0 .021.409l.014.198.006.081c.006.069.011.137.018.205l.005.051c.077.817.197 1.527.291 2.007H54c.078.402.139.644.14.649l.001.001h-.001c-.492-.202-1.295-.835-2.153-1.726l-.01-.011a17.661 17.661 0 0 1-.8-.893l-.025-.03c-.054-.064-.107-.13-.16-.195l-.068-.084-.146-.184-.08-.104-.138-.181-.084-.113a15.306 15.306 0 0 1-.229-.32l-.098-.14a8.45 8.45 0 0 1-.104-.156 8.86 8.86 0 0 1-.206-.317 24.37 24.37 0 0 1-.105-.167l-.095-.155-.105-.178a11.296 11.296 0 0 1-.203-.361l-.064-.118a10.833 10.833 0 0 1-.164-.322l-.06-.126a10.07 10.07 0 0 1-.099-.212l-.064-.144a6.97 6.97 0 0 1-.084-.199l-.059-.147c-.027-.068-.052-.136-.077-.204l-.051-.139c-.029-.083-.056-.167-.083-.25l-.03-.093a7.973 7.973 0 0 1-.169-.667l-.028-.145a4.397 4.397 0 0 1-.032-.195l-.02-.146a6.778 6.778 0 0 1-.021-.2l-.012-.135a4.723 4.723 0 0 1-.009-.265l-.002-.06c0-1.899 1.63-2.873 2.846-3.094h.001a2.88 2.88 0 0 1 .51-.05c2.6 0 3.044 3.866 3.044 3.866a3.582 3.582 0 0 0-.154.246zm7.829 6.124s-.96-3.485-4.065-6.588c-1.191-1.771-.903-6.116 2.175-6.237l.13-.001c2.375 0 3.492 3.427 3.492 6.34 0 4.087-1.732 6.486-1.732 6.486zm3.294-15.365a9.504 9.504 0 0 0-.679-1.29c-1.709-2.721-4.328-3.899-4.328-3.899 2.218 2.011 2.009 5.061 2.009 5.061-2.361-.873-5.082 1.226-5.082 1.226-.553.097-.911-.485-1.394-1.167-.466-.662-1.048-1.421-2.038-1.745 1.14 2.741.213 3.979.213 3.979-2.994-1.205-5.761.479-6.596 1.59-.31-.492-.484-1.175-.58-1.836-.161-1.098-.108-2.132-.108-2.132-1.521 1.301-2.279 4.293-2.438 5.197-.158.904-1.536.377-2.079.377-3.213 0-4.328 2.768-4.328 2.768s-.7-.774-.7-1.866c0-.217.027-.443.07-.68.461-2.414 3.061-5.57 3.061-5.57-2.438 1.711-4.46 3.045-6.329 3.045 3.938-1.95 5.631-12.566 19.508-14.941 0 0-.782-.498-2.348-.66-1.212-.124-2.893-.048-5.045.617 1.153-3.743 5.662-9.113 14.907-10.111 0 0-1.227-.694-3.761-.62-1.296.037-2.935.273-4.93.91 0 0 .545-7.481 7.698-10.863-1.189-.593-2.979-.27-2.979-.27s4.69-3.386 11.152-3.386c.537 0 1.033.021 1.496.056 3.676.285 5.068 1.553 5.068 1.553 1.902-.809 4.201-1.303 4.201-1.303l-.066 2.529c-6.439 1.901-8.539 4.042-8.539 4.042.784-2.424 3.144-4.046 3.144-4.046-3.255-1.139-6.004-.18-6.004-.18 1.07 7.317-3.661 8.373-3.661 8.373 3.827.832 8.257 3.348 8.578 6.292-3.835-3.456-7.173-2.808-7.173-2.808s3.909 2.521 3.909 6.261c0 1.647-.583 3.879-2.611 3.879-2.028 0-4.34-.862-6.209-.862-2.473 0-3.443.614-3.443.614 4.584 1.14 5.702 2.615 5.702 2.615-1.758.118-2.915 1.05-2.915 1.05-3.73-1.353-6.471.658-7.312 1.904-2.462-.906-4.316 1.166-4.691 2.356a3.542 3.542 0 0 1 1.945-1.023c1.332-.227 2.616.316 3.079.909 0 0 .023-.052.063-.135 1.45-3.492 5.622-2.592 6.638-1.475 0 0 1.339-1.308 4.88-1.308 6.13 0 9.499 4.516 9.499 5.904 0 .714-.315 1.088-.898 1.088-.581 0-2.697-1.16-4.704-1.16-1.83.002-2.852 1.141-2.852 1.141zm1.014 7.301c-.995-2.292.196-5.508 2.385-5.9.146-.025.296-.038.45-.038 1.614 0 3.185 2.162 3.185 5.224 0 4.783-2.586 7.78-2.586 7.78s.463-3.327-3.434-7.066zM77.17 55.77c-1.062 5.02-5.348 7.89-5.757 8.154h-.011c.278-.259 3.126-3.012 3.74-7.803 0 0 3.23-.478 3.23-4.945 0-5.393-4.22-9.992-4.22-9.992 2.556.997 6.118 5.875 6.118 10.325.002 3.447-3.1 4.261-3.1 4.261zm51.27-4.545s-3.27-2.4-10.422-.452c0 0 1.325-2.121 3.318-2.74-1.248-.118-6.167.997-7.476 6.304-1.076 4.359-1.636 8.666-7.73 9.187-.406.035-.838.052-1.297.052-5.322 0-6.676-4.494-7.26-7.418-1.458-7.299-3.266-7.27-7.519-6.614 2.969.344 3.778 1.732 3.778 1.732s-6.51-1.554-10.74 1.793c0 0-.354-3.436 4.421-5.596 0 0-11.916-4.564-11.345-20.01 0 0 3.442 4.396 6.364 5.442 0 0-4.905-4.277-5.808-10.241 0 0 2.946 3.106 5.11.658 0 0 1.077 2.223 2.458 3.174 0 0-.593 6.115 2.734 9.253 0 0-.415-3.277.891-5.915 0 0 1.024 2.103 2.71 3.148 0 0-1.778 1.017-1.062 2.87 0 0 .893-1.502 3.174-1.502.569 0 1.615.129 1.828.129 0 0-2.267-1.005-1.197-3.545 0 0 .483 3.106 3.454 3.106 1.948 0 2.728-1.247 2.728-1.247l1.827 1.983c.096 3.303 2.786 3.298 2.786 3.298-1.521-1.568-.552-5.066-.552-5.066-1.354-.379-2.226-2.905-2.226-2.905s-5.373.035-8.043-3.11c-1.53 1.023-1.884 1.819-1.884 1.819-3.229-4.18.047-10.086.047-10.086-2.757 2.091-4.396 5.346-4.396 5.346.634-4.879 4.424-7.456 4.424-7.456a9.238 9.238 0 0 0-.155-.432c-1.396.463-2.592 1.336-2.592 1.336s-1.052-1.55-2.699-2.341c0 0 .99-.258 2.511.375 0 0-1.374-2.267-2.452-3.027 0 0 2.497.188 4.576 2.217-2.254-4.28-6.63-7.445-6.63-7.445-2.249 8.554 2.237 12.988 2.237 12.988l-1.247 2.936s-2.037-.856-2.324-5.542c0 0-1.542-.791-1.542-3.674 0-4.152 1.11-8.458 1.11-8.458s8.467 1.015 13.155 8.585l-1.998 1.398s3.065-.794 6.327-.05c0 0-.676-1.24-2.152-3.091-.376-.471-.803-.98-1.284-1.517 0 0 4.633-1.605 8.307.041 0 0 3.068-2.046 9.055-.43 0 0-.708.915-1.493 2.169-.622.993-1.292 2.197-1.697 3.33 0 0 4.075-1.211 7.805-.083a6.333 6.333 0 0 0-1.487-1.055c-1.126-.595-2.201-.835-2.201-.835s3.926-6.975 12.733-10.047c0 0 1.22 3.895 1.22 7.255 0 3.611-1.632 4.43-1.632 4.43s.13 3.731-1.36 5.157c0 0-.588-1.17-1.57-2.278 0 0 2.902-6.546 1.507-11.363-2.451 1.932-4.2 4.14-5.339 5.878.63-.335 1.931-.968 3.663-1.497 0 0-1.753 1.9-2.658 3.152 0 0 1.375-.485 2.737-.817 0 0-1.62 1.602-2.495 2.862-.707-.261-1.68-.449-2.307-.555 2.587 1.056 4.839 3.414 5.178 8.341 0 0-1.625-2.818-3.274-4.154 0 0 1.167 3.526-.555 6.918 0 0-.71-.91-1.661-1.606 0 0-4.149 3.627-8.173 4.704 0 0-.544 1.902-1.809 2.567 0 0 1 3.373-1.101 5.248 0 0 3.098-.77 3.716-3.786 0 0 1.21-.484 1.566-1.362 0 0 .832.608 1.902.608 1.068 0 3.85-.717 3.257-4.354 0 0 2.475 3.779-2.331 5.041 0 0 4.754-1.1 6.274 1.229 0 0 .645-1.313-1.304-2.881 0 0 1.481-1.262 2.314-2.947 0 0 1.772 2.499.679 6.423 0 0 4.654-4.661 3.071-11.567 0 0 1.317-1.807 1.539-2.693 0 0 2.134 2.61 5.966.423 0 0-.872 4.453-4.388 6.988 0 0 2.924.218 5.174-1.904 0 0 1.191 14.907-11.261 19.42.004.001 3.451 1.125 4.497 4.381zM96.752 32.039c.522 0 .967-.33 1.14-.791l.825.117a2.042 2.042 0 1 1-3.867-1.283l.719.446a1.22 1.22 0 0 0 1.183 1.511zm19.596-2.135.59-.615a2.043 2.043 0 1 1-3.483 2.121l.79-.284a1.219 1.219 0 0 0 2.103-1.222zm19.453 34.02h-3.722c-1.495-3.682 1.137-9.363 1.137-9.363-1.072 5.335 2.027 8.323 3.403 9.363h-.818zm22.841-8.815c-.4 4.394-2.243 6.937-2.243 6.937-5.084 1.617-10.147-.177-10.147-.177-4.466-3.328-3.886-9.478-3.886-9.478-1.711 1.283-1.887 4.19-1.887 4.19-6.177-10.36 2.303-16.736 2.303-16.736-2.028-4.531-5.263-8.294-5.263-8.294 1.212-.332 3.179.945 3.179.945-1.552-2.692-3.987-5.279-3.987-5.279s-.228-1.998-.927-3.492c.547-2.71-.089-4.646-.089-4.646s-.881 1.911-2.614 1.911c-1.425 0-3.446-1.672-4.364-3.354l.982-1.576s8.026 2.283 12.73 7.226c0 0-1.721-.334-3.455-.215 0 0 7.012 6.161 10.36 15.174 0 0 9.385 5.309 9.385 15.193 0 .581-.028 1.138-.077 1.671z"/><path class="st2" d="M162.986 90.191s-.478.704-1.899.704c-2.52 0-5.849-2.311-5.849-2.311s2.061 4.222 6.024 4.222c1.754 0 2.995-.436 3.48-.638-.338-1.306-1.756-1.977-1.756-1.977M160.827 96.653s-.941.251-2.032.251c-2.793 0-4.874-1.801-4.874-1.801s1.925 3.876 6.251 3.876c1.287 0 2.432-.433 2.826-.598-.263-1.456-2.171-1.728-2.171-1.728M158.574 102.083s-.455.697-1.876.697c-2.581 0-5.869-2.312-5.869-2.312s3.225 4.506 6.946 4.506c1.269 0 2.207-.51 2.595-.761-.261-1.407-1.796-2.13-1.796-2.13M154.457 106.554c-.653 0-.843.418-1.449.418-1.807 0-4.785-2.429-4.785-2.429s2.064 4.112 5.628 4.112a5.398 5.398 0 0 0 2.456-.607c-.324-.775-1.137-1.494-1.85-1.494"/><path class="st1" d="M161.26 92.806c-3.961 0-6.023-4.222-6.023-4.222.515 2.926 3.426 6.155 6.753 6.155 1.193 0 2.825-.497 2.825-2.006 0-.199-.026-.387-.072-.564-.488.202-1.728.637-3.483.637M160.172 98.978c-4.325 0-6.25-3.874-6.25-3.874.275 2.05 2.651 5.602 6.238 5.602 1.949 0 2.867-1.142 2.867-1.986 0-.119-.01-.232-.03-.339-.394.167-1.538.597-2.825.597M157.776 104.975c-3.721 0-6.946-4.504-6.946-4.504.63 2.27 4.234 6.002 7.216 6.002 1.742 0 2.363-.991 2.363-1.852 0-.142-.014-.279-.039-.408a4.846 4.846 0 0 1-2.594.762M153.851 108.655c-3.565 0-5.628-4.111-5.628-4.111.093 1.973 2.705 5.612 5.781 5.612 1.76 0 2.449-.836 2.449-1.456 0-.211-.052-.434-.146-.652a5.407 5.407 0 0 1-2.456.607"/><path class="st3" d="M166.559 95.434s3.999-1.851 4.76-6.711h-6.723c1.147.529 2.324 1.734 2.324 3.881 0 2.709-1.812 3.468-3.547 3.468 0 0 1.297.417 1.297 2.79 0 2.473-2.348 3.286-3.811 3.146 0 0 1.247 1.046 1.247 2.504 0 2.239-2.046 3.869-4.228 3.318 0 0 .791 1.366.078 2.269 0 0 2.298.396 3.522-1.776l-.938-.358s5.556-.752 7.125-6.434c0 0-1.864 1.347-4.051.493 0 0 6.627-1.966 6.603-8.31 0 .001-2.043 2.314-3.658 1.72z"/><path class="st2" d="M62.279 62.583s1.733-2.4 1.733-6.486c0-2.915-1.117-6.339-3.492-6.339h-.131c3.507 5.874 1.89 12.825 1.89 12.825M70.02 61.586s2.586-2.996 2.586-7.78c0-3.062-1.572-5.224-3.185-5.224-.153 0-.304.013-.447.039 4.335 5.901 1.046 12.965 1.046 12.965M89.32 39.602c.057-.361.14-.699.242-1.01-5.17-1.6-11.424-6.186-11.424-6.186s4.458 4.831 11.182 7.196M79.324 36.117s3.862 3.624 9.975 5.73a4.43 4.43 0 0 1-.084-.871l.002-.22c-4.341-1.135-9.893-4.639-9.893-4.639M91.041 44.517a4.887 4.887 0 0 1-1.313-1.492c-5.184-1.369-9.234-3.539-9.234-3.539s3.407 3.211 10.547 5.031M96.752 32.862c.937 0 1.725-.632 1.964-1.496l-.825-.119a1.218 1.218 0 0 1-2.324-.718l-.718-.447a2.042 2.042 0 0 0 1.903 2.78M115.252 32.483a2.043 2.043 0 0 0 1.687-3.193l-.591.615a1.217 1.217 0 0 1-1.096 1.753c-.418 0-.787-.21-1.007-.532l-.79.283a2.041 2.041 0 0 0 1.797 1.074M132.308 36.624c-4.739 3.395-8.67 4.106-9.772 4.249a5.379 5.379 0 0 1-.448 1.331c7.314-1.665 10.22-5.58 10.22-5.58M121.54 43.08a5.775 5.775 0 0 1-1.761 1.499c7.204-.968 10.904-4.579 10.904-4.579-3.184 2.123-7.685 2.881-9.143 3.08M122.649 39.961c7.641-2.012 10.243-6.983 10.243-6.983-4.48 4.441-9.008 5.633-10.271 5.891.038.384.047.749.028 1.092M101.744 55.21s-.987-1.259-.432-3.369c-.856-.013-1.476-.14-1.476-.14s.246 2.178 1.908 3.509M111.752 51.45a10.463 10.463 0 0 1-1.163-.1c.476 1.783-.337 3.189-.337 3.189s1.673-1.191 1.5-3.089M102.884 59.553c-1.529-.955-1.722-3.622-1.722-3.622-.355 1.189-.657 2.89 1.722 3.622M109.534 55.973s-.1 3.07-2.36 3.849c2.498-.358 2.931-1.816 2.36-3.849"/><path class="st1" d="M58.213 55.995c3.106 3.103 4.066 6.588 4.066 6.588s1.618-6.951-1.89-12.825c-3.078.121-3.367 4.465-2.176 6.237M66.587 54.519c3.898 3.739 3.434 7.067 3.434 7.067s3.289-7.065-1.049-12.964c-2.19.387-3.38 3.604-2.385 5.897M110.169 43.538l-4.176 2.306s-2.336-1.381-4.047-1.763l-.314.439s2.829 1.214 4.444 2.733c0 0 1.697-1.364 2.97-2.051.855-.464 1.787-.346 1.787-1.387 0-.188-.137-.567-.664-.277M106.116 49.091c-.73 2.392-3.188 2.774-4.804 2.751-.555 2.108.432 3.369.432 3.369s-.262-1.638.616-3.086c0 0 .834.556 1.403.626 0 0 .811-.591 1.216-1.16 0 0 .518.529.899.741 0 0 .623-.186 1.002-.922 0 0 .87.833 1.319 1.022l1.127-.563s.951 1.269.926 2.671c0 0 .813-1.405.337-3.187-3.29-.464-4.473-2.262-4.473-2.262M107.573 58.404c-.5-.557-1.056-.716-1.056-.716l-1.113 1.004c-.44-.701-.991-1.02-.991-1.02-.748.331-.879.672-.879.672-1.474-.416-2.373-2.414-2.373-2.414s.193 2.668 1.723 3.622c.721.221 1.688.351 2.978.351.491 0 .924-.03 1.311-.082 2.261-.779 2.361-3.849 2.361-3.849-.296 1.118-1.961 2.432-1.961 2.432"/><path d="m108.9 53.282-.802.505-1.216-.945c-.06.141-.442.433-.442.433-.524.855-.44 1.957-.774 2.707-.369-.595.024-2.377-.786-2.835-.237.357-.894.867-.894.867-.381 0-1.196-.587-1.196-.587-.808 2.021.614 3.483.614 3.483s.37-.611 1.106-.719c0 0 .472.858.937 1.262l1.175-1.156.836.522c-.001-.002 1.978-1.569 1.442-3.537" style="fill:#c40d3c"/><path class="st5" d="M42.422 50.307c.555-3.106 2.366-5.373 2.366-5.373-2.869.666-4.213 2.298-4.213 2.298s-2.601 3.156-3.061 5.57c2.791-2.983 4.908-2.495 4.908-2.495M47.923 43.279c-.876 1.97-.934 3.725-.934 3.725s-.053 1.036.108 2.133c.6-.639 2.731-2.678 5.339-2.61 0 0-.292-4.228-2.568-4.272a3.541 3.541 0 0 0-1.945 1.024M55.449 41.314c-1.471 0-2.229 1.295-2.437 1.717-.02.046-.043.086-.064.133l1.111 2.241c.991.323 1.573 1.081 2.04 1.744 1.042-1.789 3.765-2.054 3.765-2.65-1.069-1.853-2.655-3.185-4.415-3.185M64.894 45.928c1.113-2.04 4.504-.833 4.504-2.31 0-.996-3.808-2.618-6.664-2.618-1.886 0-3.086.555-3.086.555l.918.474s2.619 1.179 4.328 3.899M64.907 13.609s-1.152-.19-3.02-.063c0 0 3.427-2.207 8.056-2.537a19.767 19.767 0 0 0-1.495-.056c-6.463 0-11.153 3.388-11.153 3.388s1.791-.324 2.979.268c-7.154 3.383-7.698 10.864-7.698 10.864 1.995-.635 3.634-.873 4.93-.91.158-1.604 1.162-7.849 7.401-10.954M51.405 34.677c.664-1.551 3.98-7.906 14.087-9.217-1.725-.254-4.225-.279-4.225-.279-9.244.998-13.753 6.37-14.905 10.111 2.151-.663 3.831-.74 5.043-.615"/><path class="st5" d="M57.139 35.353c-1.438-.351-3.385-.017-3.385-.017-13.875 2.375-15.568 12.991-19.507 14.941 1.869 0 3.891-1.334 6.328-3.045 1.235-3.177 6.299-10.692 16.564-11.879M149.333 38.243c-3.349-9.014-10.361-15.174-10.361-15.174 1.734-.119 3.455.214 3.455.214-4.704-4.942-12.73-7.225-12.73-7.225l-.982 1.576c.918 1.681 2.94 3.353 4.363 3.353 1.734 0 2.615-1.912 2.615-1.912s.636 1.937.089 4.647c0 0 5.212 3.938 7.873 10.528l-1.958.327s3.046 3.51 4.567 7.502c0 0-1.267 4.906 0 9.787l2.283-4.243c.143 5.407 1.366 10.833 5.738 10.833 2.758 0 3.893-1.627 4.357-3.346.048-.532.077-1.091.077-1.674 0-9.886-9.386-15.193-9.386-15.193M111.144 41.106c.184-.705.785-1.175.785-2.078a.387.387 0 0 0-.161-.335c-.364.518-.927 1.335-1.155 1.661-.343.497-.44.694-1.373 1.107l-2.988 1.27v1.632c.636-.16 1.519-.839 2.445-1.276 1.055-.497 2.161-.888 2.447-1.981"/><path class="st5" d="M127.888 29.575s1.721 1.674 4.513 1.032c0 0-3.156 5.676-9.977 7.103 0 0-.767-2.488-4.118-2.488-2.4 0-4.443 1.92-4.443 1.92s1.568-.928 3.279-.928c1.712 0 3.747 1.064 3.747 3.865 0 3.595-3.036 5.475-5.294 5.475-.206 0-.392-.006-.559-.018-1.012 2.266-3.197 3.43-4.238 3.875.22.022.436.033.64.033 2.724 0 4.49-2.863 4.49-2.863 6.464-.697 10.546-2.609 10.546-2.609-3.325 2.595-9.422 3.888-9.422 3.888-1.205 2.028-3.065 2.838-3.065 2.838-2.856 4.352-1.31 9.525-6.684 10.537-.044 1.197-.772 1.961-1.173 2.291 6.094-.519 6.653-4.828 7.729-9.187 1.309-5.307 6.229-6.423 7.476-6.303 0 0 4.622-.266 7.104 3.189-1.046-3.254-4.494-4.376-4.494-4.376 12.452-4.515 11.26-19.421 11.26-19.421-2.249 2.122-5.173 1.903-5.173 1.903 3.518-2.536 4.387-6.988 4.387-6.988-3.831 2.187-5.966-.422-5.966-.422s.496 2.47 3.348 2.708c.003-.003-1.536 3.116-3.913 4.946m-8.109 15.006a5.802 5.802 0 0 0 1.76-1.501c1.46-.199 5.96-.955 9.145-3.079 0-.001-3.701 3.61-10.905 4.58m2.308-2.377c.193-.393.351-.834.45-1.331 1.102-.142 5.031-.854 9.771-4.249 0 0-2.906 3.915-10.221 5.58m.562-2.243c.019-.343.01-.708-.028-1.092 1.263-.258 5.791-1.451 10.271-5.891 0 0-2.602 4.971-10.243 6.983M97.926 37.43s-1.645-2.067-4.093-2.067c-1.862 0-3.565 1.052-4.273 3.229a6.641 6.641 0 0 0-.24 1.01 8.41 8.41 0 0 0-.102 1.153c-.001.073-.003.145-.003.221 0 .305.03.595.084.869.085.43.233.822.43 1.178a4.864 4.864 0 0 0 1.312 1.493c1.478 1.144 3.477 1.587 4.487 1.541 0 0-4.439-1.042-4.439-5.367.001-3.089 3.516-5.618 6.837-3.26M110.55 15.983s4.151-.017 8.872 3.089c0 0-.316 7.302-9.915 10.344 0 0-.289 1.582-1.953 3.529 0 0 .917 1.57.219 5.262 2.101-1.875 1.101-5.248 1.101-5.248 1.265-.665 1.809-2.567 1.809-2.567 4.024-1.077 8.173-4.704 8.173-4.704a9.524 9.524 0 0 1 1.661 1.606c1.722-3.393.555-6.918.555-6.918 1.649 1.336 3.274 4.154 3.274 4.154-.339-4.927-2.591-7.285-5.178-8.341a10.9 10.9 0 0 0-.578-.213c.158-.352.685-1.475 1.638-2.932 1.139-1.738 2.888-3.946 5.339-5.878-5.087 1.914-7.993 6.463-8.696 7.681a6.333 6.333 0 0 1 1.487 1.055c-3.734-1.13-7.808.081-7.808.081M90.728 14.742c.247.466.469.95.655 1.44.053.144.106.287.155.432 0 0-3.792 2.578-4.425 7.456 0 0 1.64-3.255 4.396-5.346 0 0-3.276 5.906-.046 10.086 0 0 .353-.796 1.882-1.819-.883-1.038-1.471-2.425-1.471-4.275 0-2.631.762-4.843.762-4.843s3.185-2.392 7.177-2.392c-3.261-.744-6.326.05-6.326.05-3.357-6.588-9.39-8.234-9.39-8.234s4.377 3.165 6.631 7.445M107.427 12.189c1.436-.319 3.263-.417 4.821.464.784-1.254 1.493-2.168 1.493-2.168-5.988-1.617-9.056.43-9.056.43-3.675-1.648-8.308-.042-8.308-.042.48.539.908 1.048 1.285 1.519a7.89 7.89 0 0 1 7.282.657 11.143 11.143 0 0 1 2.483-.86"/><path class="st3" d="M132.105 63.985h4.599c-1.331-.98-4.581-3.98-3.486-9.425 0 0-2.665 5.746-1.113 9.425M77.171 55.77s3.101-.814 3.101-4.261c0-4.45-3.563-9.328-6.119-10.325 0 0 4.219 4.598 4.219 9.992 0 4.468-3.23 4.945-3.23 4.945-.649 5.038-3.764 7.825-3.764 7.825s4.678-2.902 5.793-8.176M49.868 42.256c2.276.044 2.568 4.272 2.568 4.272-2.608-.069-4.739 1.973-5.339 2.61.096.659.27 1.344.58 1.837.834-1.112 3.602-2.796 6.596-1.591 0 0 .927-1.238-.213-3.979l-1.112-2.239c-.463-.593-1.747-1.137-3.08-.91"/><path class="st3" d="M64.894 45.928c.249.396.48.825.679 1.29 0 0 1.022-1.139 2.851-1.139 2.009 0 4.123 1.16 4.704 1.16.583 0 .898-.374.898-1.088 0-1.388-3.369-5.903-9.499-5.903-3.541 0-4.88 1.307-4.88 1.307S60.849 41 62.734 41c2.856 0 6.664 1.623 6.664 2.618 0 1.477-3.391.27-4.504 2.31"/><path class="st3" d="M53.012 43.03c.207-.422.964-1.717 2.437-1.717 1.76 0 3.347 1.332 4.415 3.185 0 .598-2.724.861-3.765 2.651.48.683.84 1.264 1.394 1.168 0 0 2.721-2.1 5.081-1.228 0 0 .21-3.049-2.007-5.061l-.92-.473c-1.016-1.118-5.186-2.017-6.635 1.475M72.665 28.269c-.321-2.943-4.75-5.461-8.576-6.292 0 0 4.729-1.057 3.66-8.373 0 0 2.749-.959 6.004.18 0 0-2.36 1.622-3.144 4.046 0 0 2.101-2.14 8.539-4.042l.067-2.529s-2.3.494-4.201 1.303c0 0-1.394-1.268-5.069-1.553-4.63.33-8.056 2.537-8.056 2.537 1.869-.127 3.019.063 3.019.063-6.237 3.105-7.242 9.348-7.399 10.953 2.534-.073 3.76.62 3.76.62s2.499.024 4.225.279c-.002 0 3.336-.647 7.171 2.808"/><path class="st3" d="M66.791 35.6c2.026 0 2.611-2.231 2.611-3.878 0-3.741-3.911-6.261-3.911-6.261-10.107 1.311-13.423 7.664-14.087 9.217 1.567.16 2.349.658 2.349.658s1.946-.333 3.383.016c0 0 .972-.613 3.442-.613 1.873 0 4.184.861 6.213.861"/><path class="st3" d="M42.473 52.58c.543 0 1.921.526 2.079-.377.159-.904.917-3.898 2.439-5.197 0 0 .058-1.756.933-3.727.375-1.19 2.229-3.262 4.691-2.358.84-1.245 3.582-3.255 7.312-1.903 0 0 1.157-.934 2.915-1.05 0 0-1.118-1.475-5.701-2.615-10.265 1.187-15.33 8.702-16.564 11.879 0 0 1.344-1.633 4.213-2.298 0 0-1.811 2.267-2.366 5.373 0 0-2.117-.487-4.908 2.496a3.61 3.61 0 0 0-.07.68c0 1.092.7 1.866.7 1.866s1.114-2.769 4.327-2.769M140.696 32.494s-1.967-1.278-3.179-.943c0 0 3.236 3.761 5.265 8.294 0 0-8.483 6.376-2.305 16.733 0 0 .177-2.905 1.888-4.188 0 0-.581 6.151 3.886 9.478 0 0 5.063 1.793 10.149.176 0 0 1.844-2.539 2.242-6.936-.464 1.722-1.599 3.349-4.357 3.349-4.372 0-5.595-5.426-5.738-10.833l-2.284 4.243c-1.266-4.881 0-9.787 0-9.787-1.52-3.992-4.565-7.502-4.565-7.502l1.957-.327c-2.661-6.59-7.873-10.528-7.873-10.528.701 1.495.926 3.493.926 3.493s2.437 2.588 3.988 5.278M117.833 38.243s-.454-.264-.915-.264c-2.472 0-4.432 2.337-4.401 4.328.013.973-.055 1.342-.438 1.923.777.428.782.874.782.874-.886-.024-4.448 1.851-4.448 2.832 0 .904 1.24 1.352 2.387 1.473 1.039-.445 3.226-1.609 4.237-3.875-1.167-.078-1.424-.392-1.424-.392 2.016-.308 3.513-1.704 3.513-1.704-1.869.318-2.98-.273-2.98-.273 2.107-.414 3.565-2.195 3.565-2.195-1.298.665-3.172.456-3.172.456 3.657-1.697 3.294-3.183 3.294-3.183M121.337 48.034c-1.995.619-3.318 2.739-3.318 2.739 7.151-1.948 10.422.451 10.422.451-2.484-3.456-7.104-3.19-7.104-3.19"/><path class="st3" d="M76.724 22.663c.905 5.964 5.81 10.242 5.81 10.242-2.924-1.045-6.366-5.442-6.366-5.442-.569 15.447 11.346 20.009 11.346 20.009-4.774 2.161-4.421 5.598-4.421 5.598 4.229-3.348 10.739-1.794 10.739-1.794s-.809-1.388-3.778-1.732c4.253-.657 6.061-.685 7.519 6.616.584 2.921 1.938 7.416 7.261 7.416.458 0 .888-.017 1.297-.052.401-.33 1.129-1.094 1.174-2.291-.611.113-1.309.177-2.115.177-7.081 0-5.441-5.797-7.407-10.278-1.776-.858-2.473-2.732-2.473-2.732-6.43-.697-10.328-4.32-10.328-4.32 6.717 3.484 12.205 3.041 12.205 3.041s.748 2.677 3.904 2.677c2.521 0 3.07-1.239 3.07-1.239-1.094-3.103-4.868-3.111-4.868-3.111l.928-1.138c-.665-.46-.621-1.103-.983-3.236-.361-2.134-2.085-2.624-3.5-2.624-1.156 0-1.507.552-1.507.552.609 1.443 2.824 2.793 2.824 2.793-2.344.11-3.165-.495-3.165-.495.998 1.346 3.496 2.358 3.496 2.358-1.552.507-3.116.052-3.116.052.95 1.33 3.521 1.735 3.521 1.735-.808.981-2.262.613-2.262.613-1.008.045-3.006-.397-4.487-1.541-7.14-1.82-10.546-5.032-10.546-5.032s4.049 2.17 9.234 3.538a4.07 4.07 0 0 1-.429-1.177c-6.114-2.105-9.975-5.73-9.975-5.73s5.551 3.504 9.893 4.64c.01-.41.043-.793.102-1.153-6.723-2.365-11.183-7.196-11.183-7.196s6.254 4.586 11.424 6.186c.708-2.177 2.409-3.229 4.271-3.229 2.448 0 4.093 2.067 4.093 2.067s.232-.876.803-.876c1.234 0 3.469 2.332 4.002 3.971-.331-.428-1.544-1.402-2.077-1.402-.534 0 .034 1.115.51 2.442.477 1.327 1.198 1.484 1.877 1.699 1.253.402 2.212 1.134 2.96 1.134.077 0 .162-.013.251-.036v-1.631l2.988-1.272c.933-.412 1.031-.611 1.375-1.106.227-.327.79-1.143 1.153-1.661a.614.614 0 0 0-.352-.103c-.891 0-2.423 1.549-2.423 1.549.618-1.777 2.899-3.892 3.956-3.892.749 0 .463 1.296.914.896 0 0 2.044-1.921 4.444-1.921 3.35 0 4.119 2.488 4.119 2.488 6.818-1.426 9.976-7.102 9.976-7.102-2.792.641-4.512-1.032-4.512-1.032 2.375-1.83 3.915-4.949 3.915-4.949-2.852-.237-3.349-2.708-3.349-2.708-.222.886-1.54 2.692-1.54 2.692 1.585 6.906-3.069 11.567-3.069 11.567 1.092-3.923-.68-6.423-.68-6.423-.833 1.686-2.314 2.947-2.314 2.947 1.949 1.568 1.304 2.881 1.304 2.881-1.52-2.329-6.274-1.227-6.274-1.227 4.806-1.263 2.331-5.043 2.331-5.043.594 3.636-2.187 4.354-3.256 4.354-1.071 0-1.903-.607-1.903-.607-.356.878-1.566 1.361-1.566 1.361-.617 3.017-3.714 3.787-3.714 3.787.697-3.693-.219-5.262-.219-5.262 1.663-1.948 1.951-3.529 1.951-3.529 9.601-3.042 9.916-10.344 9.916-10.344-4.722-3.107-8.874-3.09-8.874-3.09.407-1.133 1.077-2.336 1.698-3.329-1.557-.882-3.383-.783-4.819-.464-1.436.318-2.482.857-2.482.857a7.9 7.9 0 0 0-7.283-.656c1.475 1.85 2.151 3.09 2.151 3.09-3.993 0-7.178 2.392-7.178 2.392s-.76 2.213-.76 4.844c0 1.851.588 3.237 1.471 4.276 2.671 3.143 8.043 3.109 8.043 3.109s.873 2.525 2.225 2.906c0 0-.968 3.497.554 5.066 0 0-2.691.004-2.786-3.299l-1.827-1.983s-.779 1.248-2.728 1.248c-2.971 0-3.455-3.107-3.455-3.107-1.068 2.542 1.199 3.546 1.199 3.546-.215 0-1.26-.13-1.83-.13-2.281 0-3.173 1.503-3.173 1.503-.714-1.853 1.063-2.871 1.063-2.871-1.688-1.045-2.71-3.148-2.71-3.148-1.308 2.637-.893 5.915-.893 5.915-3.326-3.136-2.734-9.252-2.734-9.252-1.379-.952-2.459-3.174-2.459-3.174-2.164 2.447-5.112-.659-5.112-.659m32.176-5.774s-3.241 3.957-.36 9.885c0 0-2.206.631-2.941 2.52.001 0-1.881-9.817 3.301-12.405M120.226 13.042c-.953 1.457-1.481 2.58-1.638 2.932.194.066.387.135.577.213.629.106 1.6.294 2.307.555.877-1.259 2.496-2.862 2.496-2.862-1.362.332-2.737.817-2.737.817.903-1.251 2.658-3.152 2.658-3.152a21.18 21.18 0 0 0-3.663 1.497"/><path class="st3" d="M125.565 7.165c1.394 4.817-1.508 11.362-1.508 11.362a12.1 12.1 0 0 1 1.57 2.276c1.488-1.424 1.36-5.155 1.36-5.155s1.633-.819 1.633-4.431c0-3.359-1.22-7.254-1.22-7.254-8.808 3.073-12.734 10.047-12.734 10.047s1.077.24 2.203.837c.703-1.22 3.608-5.769 8.696-7.682M86.091 15.177c1.647.79 2.699 2.341 2.699 2.341s1.196-.873 2.592-1.335a12.778 12.778 0 0 0-.656-1.44c-2.079-2.03-4.576-2.219-4.576-2.219 1.077.761 2.452 3.027 2.452 3.027-1.52-.632-2.511-.374-2.511-.374"/><path class="st3" d="M82.764 17.679c.285 4.685 2.324 5.542 2.324 5.542l1.244-2.936s-4.484-4.434-2.235-12.988c0 0 6.033 1.646 9.391 8.234l1.999-1.398c-4.689-7.571-13.156-8.586-13.156-8.586s-1.11 4.305-1.11 8.458c.001 2.882 1.543 3.674 1.543 3.674"/><path d="M97.782 51.132c1.967 4.481.326 10.278 7.407 10.278.807 0 1.505-.064 2.115-.179 5.373-1.013 3.826-6.182 6.683-10.534 0 0 1.86-.811 3.065-2.839 0 0 6.096-1.292 9.423-3.887 0 0-4.084 1.911-10.546 2.608 0 0-1.768 2.863-4.491 2.863a6.83 6.83 0 0 1-.64-.033c-1.146-.12-2.386-.569-2.386-1.473 0-.982 3.562-2.856 4.448-2.832 0 0-.006-.447-.782-.875.384-.582.451-.948.438-1.923-.031-1.989 1.929-4.327 4.401-4.327.461 0 .915.264.915.264s.363 1.485-3.295 3.183c0 0 1.875.21 3.172-.458 0 0-1.458 1.783-3.565 2.195 0 0 1.111.592 2.98.275 0 0-1.497 1.395-3.513 1.702 0 0 .257.316 1.424.394.166.01.352.018.559.018 2.259 0 5.294-1.88 5.294-5.475 0-2.801-2.036-3.865-3.746-3.865-1.712 0-3.281.929-3.281.929-.452.4-.167-.895-.914-.895-1.057 0-3.339 2.115-3.957 3.891 0 0 1.533-1.549 2.424-1.549.117 0 .25.028.352.102a.39.39 0 0 1 .163.336c0 .903-.602 1.374-.786 2.078-.287 1.093-1.393 1.483-2.448 1.981-.926.436-1.809 1.114-2.446 1.275a1.077 1.077 0 0 1-.251.036c-.749 0-1.707-.732-2.96-1.134-.678-.215-1.399-.372-1.877-1.699-.476-1.327-1.044-2.442-.51-2.442s1.747.974 2.077 1.403c-.533-1.64-2.767-3.972-4.002-3.972-.571 0-.803.876-.803.876-3.319-2.358-6.836.171-6.836 3.26 0 4.325 4.438 5.369 4.438 5.369s1.454.366 2.262-.615c0 0-2.571-.407-3.522-1.735 0 0 1.564.456 3.116-.053 0 0-2.498-1.012-3.496-2.358 0 0 .821.606 3.164.495 0 0-2.213-1.35-2.823-2.793 0 0 .351-.551 1.507-.551 1.416 0 3.14.489 3.502 2.624.362 2.134.317 2.776.982 3.236l-.928 1.138s3.774.009 4.868 3.111c0 0-.548 1.239-3.069 1.239-3.156 0-3.902-2.677-3.902-2.677s-5.49.443-12.207-3.041c0 0 3.898 3.623 10.328 4.32.003.003.7 1.877 2.475 2.735m9.392 8.69a9.85 9.85 0 0 1-1.311.083c-1.289 0-2.257-.13-2.98-.351-2.378-.731-2.076-2.435-1.722-3.623 0 0 .899 1.999 2.373 2.414 0 0 .131-.34.88-.671 0 0 .55.318.99 1.02l1.114-1.005s.556.156 1.056.717c0 0 1.665-1.315 1.961-2.432.57 2.032.137 3.49-2.361 3.848m-4.384-6.396s.815.587 1.196.587c0 0 .658-.51.894-.867.81.458.416 2.24.786 2.835.334-.75.25-1.852.774-2.707 0 0 .383-.292.442-.433l1.216.945.802-.505c.536 1.968-1.442 3.536-1.442 3.536l-.836-.522-1.176 1.156c-.464-.403-.936-1.26-.936-1.26-.736.107-1.105.717-1.105.717s-1.424-1.461-.615-3.482m-1.158-8.906.314-.44c1.711.381 4.047 1.765 4.047 1.765l4.176-2.306c.527-.291.664.088.664.277 0 1.041-.931.921-1.787 1.387-1.273.685-2.97 2.052-2.97 2.052-1.615-1.521-4.444-2.735-4.444-2.735m-.32 7.321c1.616.023 4.073-.357 4.804-2.75 0 0 1.183 1.798 4.472 2.26.361.049.749.085 1.164.1.172 1.897-1.5 3.087-1.5 3.087.024-1.401-.926-2.671-.926-2.671l-1.126.565c-.452-.19-1.319-1.022-1.319-1.022-.379.735-1.003.92-1.003.92-.38-.211-.898-.741-.898-.741-.405.571-1.215 1.161-1.215 1.161-.57-.071-1.405-.626-1.405-.626-.877 1.448-.614 3.085-.614 3.085-1.662-1.331-1.908-3.509-1.908-3.509s.618.128 1.474.141M108.54 26.774c-2.883-5.927.36-9.885.36-9.885-5.181 2.588-3.3 12.406-3.3 12.406.734-1.889 2.94-2.521 2.94-2.521M65.812 91.523h-3.61l-.469 1.104h1.138l-1.79 4.23c-.059.139-.152.469.783.469h2.475l2.257-5.333c.058-.14.15-.47-.784-.47M121.319 91.523h-3.61l-.467 1.104h1.137l-1.79 4.23c-.059.139-.152.469.784.469h2.473l2.258-5.333c.06-.14.152-.47-.785-.47M58 91.523h-1.963l-1.053 2.49-1.593-2.332a.478.478 0 0 0-.348-.158h-4.102l-.469 1.104h1.137l-1.789 4.23c-.059.139-.15.469.783.469h1.96l1.218-2.873 1.854 2.712c.061.088.216.161.347.161h2.544l2.256-5.333c.059-.14.153-.47-.782-.47M81.904 92.627h1.138l-1.79 4.227c-.058.143-.152.472.782.472h6.093c.235 0 .509-.194.608-.427l.287-.68h-4.045l.638-1.502h2.722c.236 0 .51-.194.61-.429l.287-.676h-3.151l.416-.985h2.936c.233 0 .509-.192.607-.428l.288-.676h-7.955l-.471 1.104zM125.262 92.627h2.374l-1.79 4.227c-.058.143-.15.472.783.472h2.475l1.989-4.699h1.81c.234 0 .51-.192.608-.428l.286-.676h-8.067l-.468 1.104zM100.816 91.523h-7.167l-.468 1.104h1.25l-1.79 4.23c-.058.139-.151.469.783.469h2.474l1.063-2.51h.306l1.266 2.206c.096.167.367.303.601.303h3.321l-2.071-2.547c1.176-.108 1.967-.479 2.425-1.56.575-1.352-.276-1.695-1.993-1.695m-1.222 1.696c-.139.327-.515.59-.841.59h-1.366l.501-1.182h1.366c.324 0 .477.266.34.592M145.96 91.523h-2.721l-2.165 2.114-.79-1.789c-.079-.179-.336-.325-.571-.325h-3.112l-.469 1.104h1.361l1.231 2.403-.775 1.826c-.058.139-.15.469.783.469h2.475l.952-2.248 3.825-3.218c.222-.184.211-.336-.024-.336M79.503 91.523h-2.556l-3 3.304-.165-2.919c-.013-.211-.215-.384-.45-.384h-3.411l-.467 1.104h1.118l.514 4.322c.024.209.237.377.472.377h2.727l5.282-5.428c.2-.205.17-.376-.064-.376M106.839 93.186c-.348.825-.053 1.252.738 1.445l2.052.503s.523.127.332.575c-.215.512-.79.512-.79.512h-3.763l-.268.635c-.06.141-.152.47.782.47h4.347c1.248 0 2.266-.513 2.797-1.774.499-1.176-.189-1.439-.73-1.575l-2.006-.502s-.521-.129-.38-.461c.164-.386.739-.386.739-.386h2.813l.469-1.105h-4.585c-.67 0-1.886.103-2.547 1.663M44.62 91.523h-2.473l-1.697 4.009c-.29.688-1.241.688-1.241.688s-.948 0-.658-.688l1.498-3.539c.06-.14.152-.47-.782-.47h-3.556l-.468 1.104h1.082l-1.229 2.905c-.797 1.887 1.765 1.887 3.605 1.887 1.842 0 4.405 0 5.204-1.887l1.499-3.539c.059-.14.151-.47-.784-.47"/><path class="st5" d="m132.913 103.769.514-1.218h-8.376l-.616 1.459h2.418l-2.36 5.574c-.093.22-.261.62.722.62h2.568l2.622-6.194h2.17c.129 0 .283-.108.338-.241M53.818 102.551h-6.699l-.617 1.46h1.203l-2.359 5.573c-.094.22-.262.62.721.62h6.325c1.101 0 1.971-.551 2.766-2.433.799-1.887-.938-1.887-.938-1.887s1.196-.226 1.614-1.211c.818-1.93-.203-2.122-2.016-2.122m-2.058 4.864-.303.708c-.091.222-.262.625-1.246.625h-.959l.827-1.952h.959c.983 0 .813.401.722.619m1.178-2.788-.038.09c-.093.222-.263.618-1.247.618h-.959l.562-1.325h.959c.987.001.816.398.723.617M80.361 102.55h-5.886l-.617 1.46h1.412l-4.848 5.751c-.203.244-.155.443.107.443h2.545l1.255-1.676h2.975l-.058 1.23c-.012.242.192.445.453.445h2.995l.136-7.213c.004-.241-.207-.44-.469-.44m-2.988 4.521h-1.955l2.089-2.787-.134 2.787zM119.731 102.55h-5.886l-.617 1.46h1.413l-4.849 5.751c-.203.244-.155.443.107.443h2.545l1.254-1.676h2.975l-.058 1.23c-.012.242.192.445.453.445h2.995l.136-7.213c.006-.241-.205-.44-.468-.44m-2.986 4.521h-1.955l2.089-2.787-.134 2.787zM106.02 108.601h-1.952c-.482 0-.664-.012-.845-.035-.393-.069-.603-.321-.571-.666.02-.218.135-.562.393-1.205.322-.792.691-1.55.905-1.894.352-.575.649-.724 1.463-.724h2.521l.647-1.527h-4.375c-2.545 0-3.428.746-4.723 3.996-.371.964-.559 1.561-.602 2.032-.061.666.18 1.125.77 1.401.51.241 1.169.31 3.148.31h2.506l.715-1.688zM142.721 106.063c-.202-.149-.523-.287-1.184-.505l-1.049-.345c-.533-.172-.657-.275-.634-.517.025-.275.212-.494.52-.597.206-.069.424-.092 1.023-.092h3.089l.617-1.458h-5.069c-.865 0-1.184.035-1.58.184-.567.195-1.092.666-1.448 1.286-.299.54-.561 1.228-.591 1.55-.051.551.349.907 1.462 1.286l1.066.345c.616.183.785.333.759.62-.021.229-.191.447-.451.562-.26.115-.462.149-1.277.149h-2.921l-.71 1.676h4.674c1.413 0 2.079-.184 2.767-.792.578-.494 1.244-1.78 1.311-2.515a.893.893 0 0 0-.374-.837zM66.635 108.601h-3.536l.744-1.768h3.539l.646-1.527h-3.53l.535-1.297h3.544l.616-1.458h-8.247l-.627 1.46h1.19l-2.359 5.578a.91.91 0 0 0-.074.264c-.022.241.217.356.783.356h6.096l.68-1.608zM95.047 106.113c.634-.563 1.134-1.481 1.205-2.262.041-.447-.123-.838-.453-1.045-.316-.184-.774-.264-1.656-.264h-7.309l-.612 1.469h1.184l-2.355 5.569c-.043.103-.085.195-.09.253-.023.252.233.367.798.367h2.549l1.435-3.364h.316l1.006 2.812c.186.505.249.551.881.551h2.981l-1.625-3.364c.81-.126 1.276-.321 1.745-.722zm-2.293-1.654c-.028.31-.189.609-.441.815-.251.195-.558.287-1.04.287h-.998l.658-1.562h.865c.782 0 .989.104.956.46z"/><path class="st3" d="M28.806 67.944c-.49-.733-1.624-1.607-4.238-1.607h-14.26l.54 4.962h3.679l-2.06.861-5.852 14.158h10.381c3.519 0 6.112-1.391 7.113-3.815l1.155-2.792c.348-.845.549-2.676-.901-4.034l3.321-1.825 1.268-3.065c.432-1.047.38-2.056-.146-2.843zm-9.904 5.523.896-2.168h2.373l-3.269 2.168zm-3.26 7.89 1.692-4.098.653.711c.772.838.577 1.532.544 1.632-.49 1.181-1.099 1.755-1.86 1.755h-1.029zM137.428 66.338l.54 4.963h4.903l-2.059.86-5.849 14.156h6.974l6.207-15.016h4.578l2.051-4.963zM110.081 67.556c-.697-.785-1.811-1.217-3.137-1.217h-7.646l-2.135 4.963h3.612l-2.169 1.057-6.768 13.959h6.743l2.149-4.43h2.782l-.675 4.43h6.136l1.891-15.748c.148-1.248-.115-2.262-.783-3.014zm-6.864 9.197 1.573-3.241-.494 3.241h-1.079z"/><path class="st3" d="m29.717 66.332.544 4.965h3.225l-2.067.855-5.833 14.156 6.403.01.574-.008 7.771-18.833.501-1.149zM91.133 66.318l-2.716 6.572h-2.005l2.71-6.572h-6.43l-.464.01-4.194-.017.544 4.969h3.225l-2.085.895-5.821 14.157h6.977l3.543-8.6h1.996l-3.557 8.6h7.021l8.251-20.014zM186.405 66.32l-2.971 7.18-1.752-7.18-10.52.003.544 4.966h3.225l-2.043.86-5.865 14.178h6.424l.56-.004 3.473-8.409 1.695 6.944a.759.759 0 0 0 .022.078l.338 1.388 5.588-.002 8.262-20.003h-6.98z"/><path class="st3" d="m55.025 66.32-2.971 7.18-1.752-7.18-2.468.001c.716 1.345 1.773 1.998 1.773 1.998-3.903.826-6.594-.337-8.41-1.996l-1.416.001.544 4.966h3.225l-2.042.86-5.865 14.178 6.985-.004 3.473-8.409 2.055 8.411 5.588-.002.598-1.457 7.664-18.546h-6.981z"/><path class="st2" d="M28.185 70.47c.747-1.81-.303-3.303-3.618-3.303H11.233l.359 3.303h7.071l-5.56 2.323-5.248 12.696h9.14c.732 0 4.983 0 6.347-3.302l1.155-2.791s.853-2.067-1.085-3.423l-.577-.402 4.193-2.305 1.157-2.796zm-8.883 9.436c-.211.511-.942 2.281-2.632 2.281h-2.269l2.662-6.447 1.533 1.669c1.2 1.302.706 2.497.706 2.497M17.1 75.658l2.143-5.188h5.679L17.1 75.658z"/><g><path class="st2" d="M153.533 67.168h-15.18l.359 3.303h8.298l-5.562 2.323-5.245 12.694h5.18l6.206-15.017h4.579z"/></g><g><path class="st2" d="M106.944 67.168h-7.1l-1.421 3.304h5.948l-5.144 2.506-6.065 12.51h4.9l2.148-4.43h4.268l-.676 4.43h4.434l1.804-15.016c.308-2.584-1.531-3.304-3.096-3.304m-1.935 10.415h-3.116l3.451-7.111h.749l-1.084 7.111z"/></g><g><path class="st2" d="m39.566 67.161.001-.003-8.925.003.362 3.307h6.619l-5.549 2.318h-.019L26.824 85.48l5.167.009.003-.009h.014l7.559-18.319z"/></g><g><path class="st2" d="m91.687 67.148-1.548 3.749-1.167 2.823h-3.799l1.628-3.952H86.8l1.082-2.62h-5.19l-.005.012-3.728-.016.363 3.307h6.618l-5.548 2.318h-.022l-5.235 12.734h5.184l3.543-8.6h3.792l-3.557 8.6h5.224l7.568-18.355z"/></g><g><path class="st2" d="M192.145 67.149h-5.185l-3.729 9.016-2.2-9.016h-5.191l-.001.004h-3.752l.362 3.307h6.619l-5.549 2.318h-.003l-.001.001-.013.006.009.004-5.248 12.708h5.184l.002-.003h.003l3.636-8.802.596-1.442 2.503 10.245 4.382-.001z"/></g><path class="st2" d="M60.765 67.149H55.58l-1.212 2.935h-.005l-2.512 6.08-2.2-9.015h-1.278c.613.785 1.235 1.169 1.235 1.169-3.209.679-5.597.013-7.355-1.166h-1.546l.362 3.307h6.618l-5.549 2.318h-.003l-.001.002-.012.005.009.004-4.438 10.739c-.013.031-.02.057-.031.088l-.778 1.882h5.184l.002-.004h.004l.234-.567 3.401-8.235.596-1.442 2.3 9.425.008.021.195.8h1.866l-.001-.002h2.516l.233-.562-.003-.005 7.346-17.777zM45.958 66.908s-4.494-3.348-3.317-11.648a2.111 2.111 0 0 0-.338-.027c-1.87 0-2.641 1.657-2.641 3.179 0 3.197 3.055 7.444 6.296 8.496"/><path class="st1" d="M45.903 59.168c0-1.164-1.412-3.632-3.263-3.908-1.175 8.3 3.318 11.648 3.318 11.648s-.94-1.214-.94-3.366c0-2.007.885-2.79.885-4.374"/><path class="st3" d="m74.067 71.324 2.151 1.46 2.691-6.456-12.246-.001c-1.683 0-3.964.663-5.27 3.824l-4.585 11.084c-.663 1.604-.681 2.893-.054 3.83.825 1.234 2.369 1.27 2.542 1.27l11.307.001 4.532-10.892-8.931.001 1.705-4.121h6.158zm-6.76 6.122-1.624 3.902H64.17c-.036 0-.19-.035-.219-.073-.001-.001-.082-.183.145-.732l1.734-4.191 1.477 1.094z"/><g><path class="st2" d="M66.664 67.171c-1.779 0-3.477.851-4.49 3.303l-4.585 11.083c-1.626 3.934 1.708 3.934 1.708 3.934l10.744.001 3.829-9.204-6.709.001 1.179.872-2.094 5.031H64.17s-1.669 0-.854-1.971l4.03-9.742h6.981l1.511 1.026 1.806-4.333-10.98-.001z"/></g><path class="st3" d="m130.815 66.324-6.156 6.781-.816-6.777h-10.608l.546 4.991h3.157l-1.926.805-6.612 14.202 6.515.004.558-.003 3.38-7.296.89 7.308h1.146l5.442-6.009-2.157 5.994 6.966.006 7.205-20.006z"/><g><path class="st2" d="M137.144 67.156h-5.955l-7.147 7.872-.947-7.868h-8.919l.362 3.303h6.61l-5.509 2.302-5.915 12.706 5.191.003.001-.003h.002l4.416-9.485 1.159 9.521 8.078-8.919-3.196 8.88 5.172.006z"/></g><g><path class="st3" d="M169.972 67.435c-.491-.732-1.376-1.103-2.628-1.103l-7.837-.007c-2.119 0-3.844 1.104-4.924 3.131l-.359.762c-4.947 12.134-4.992 12.398-5.013 12.522-.147.848-.046 1.579.296 2.169.594 1.044 1.792 1.422 2.636 1.428h.006l7.677-.001c2.355 0 4.223-1.364 5.262-3.846l4.809-11.693c.594-1.45.619-2.55.075-3.362zm-7.248 3.871-4.157 10.054h-1.946l4.144-10.056 1.959.002z"/></g><g><path class="st2" d="m167.343 67.176-7.837-.007c-1.772 0-3.467.899-4.482 3.323h-.002c.001-.001-4.929 12.082-4.982 12.392-.124.718-.019 1.234.198 1.607.453.796 1.414.998 1.909 1.002l7.677-.001c1.772 0 3.467-.898 4.482-3.323l4.809-11.692c1.005-2.45.006-3.301-1.772-3.301zm-8.212 15.028h-3.771l4.84-11.745 3.785.004-4.854 11.741z"/></g><path class="st2" d="M54.141 64.575s-4.029-5.547-3.094-12.175c-1.217.221-2.846 1.195-2.846 3.094 0 3.8 4.431 8.463 5.94 9.081"/><path class="st1" d="M51.558 52.349a2.88 2.88 0 0 0-.51.05c-.935 6.628 3.093 12.175 3.093 12.175s-1.408-5.604.461-8.359c-.001 0-.445-3.866-3.044-3.866"/></svg>